<?xml version="1.0" encoding="UTF-8"?>
<svg version="1.1" xmlns="http://www.w3.org/2000/svg" width="2000" height="2000">
<path d="M0 0 C1.42113098 0.12728485 1.42113098 0.12728485 2.87097168 0.25714111 C95.27730886 8.61801028 186.74470549 29.22598433 355.64794922 99.35546875 C357.77811851 100.40053942 359.90978875 101.44256048 362.04345703 102.48046875 C375.44346229 108.99902011 388.43684962 116.08054973 401.35888672 123.49804688 C404.44672451 125.25404411 407.5616191 126.95549765 410.68286133 128.65112305 C440.99495041 145.18151485 470.09431902 164.68850658 498 185 C498.73750488 185.53463867 499.47500977 186.06927734 500.23486328 186.62011719 C525.03691895 204.63095075 548.82714351 223.83145987 571.81640625 244.1015625 C573.62502521 245.6739933 575.4464737 247.22713992 577.27734375 248.7734375 C583.33415133 253.89937319 589.25708316 259.0204993 594.7421875 264.76953125 C596.64227172 266.64660406 598.57594627 268.37223429 600.60180664 270.10839844 C605.130003 274.0584585 609.38700246 278.24268102 613.62890625 282.49609375 C614.8189048 283.68465721 614.8189048 283.68465721 616.03294373 284.89723206 C617.69889081 286.56250283 619.36359256 288.22902029 621.02709961 289.89672852 C623.55536134 292.43034622 626.08891661 294.95858167 628.62304688 297.48632812 C630.2503207 299.11426283 631.87728425 300.74250775 633.50390625 302.37109375 C634.25201065 303.11717392 635.00011505 303.86325409 635.77088928 304.63194275 C639.8200662 308.69898548 643.70893962 312.85002915 647.44700623 317.20545959 C650.04942572 320.21264932 652.78021532 323.09930657 655.5 326 C660.09150696 330.92504463 664.63232877 335.87398585 669 341 C670.17369141 342.37285156 670.17369141 342.37285156 671.37109375 343.7734375 C674.26402015 347.16838435 677.13573885 350.58084939 680 354 C680.5460791 354.65178223 681.0921582 355.30356445 681.65478516 355.97509766 C689.82665171 365.75377879 697.70912478 375.7122629 705.39111328 385.87939453 C706.99935947 387.99915575 708.62031319 390.10850805 710.24609375 392.21484375 C762.73601114 460.24505829 806.4430947 536.47888633 910 910 C910.0835675 910.92292847 910.16713501 911.84585693 910.25323486 912.79675293 C915.30438897 969.35820753 915.11999753 1027.45419939 910 1084 C909.91514343 1084.94742065 909.83028687 1085.89484131 909.74285889 1086.87097168 C903.17206225 1159.49299663 889.22300789 1231.55613597 866.66674805 1300.94366455 C865.99460878 1303.01662722 865.32943607 1305.09171242 864.66601562 1307.16748047 C844.91373557 1368.86414898 818.91278536 1429.44429278 786.42138672 1485.52001953 C784.68875816 1488.5430427 783.02226475 1491.59887915 781.35986328 1494.66088867 C764.83795976 1524.98315767 745.31791248 1554.093054 725 1582 C724.44940918 1582.75877441 723.89881836 1583.51754883 723.33154297 1584.29931641 C712.17147602 1599.65170815 700.47795158 1614.49989391 688.47216797 1629.19580078 C687.17728489 1630.78273046 685.88709522 1632.37348737 684.59765625 1633.96484375 C675.94130634 1644.62483343 667.01638626 1655.02733013 657.66796875 1665.0859375 C655.60547588 1667.33867495 653.58335646 1669.61113406 651.578125 1671.9140625 C640.13339717 1685.03208634 627.79335764 1697.31066778 615.5 1709.625 C614.79650421 1710.33108398 614.09300842 1711.03716797 613.36819458 1711.76464844 C611.32133702 1713.81743529 609.27070574 1715.86637298 607.21875 1717.9140625 C606.61079086 1718.52400055 606.00283173 1719.1339386 605.37644958 1719.76235962 C601.66419915 1723.45502662 597.83448239 1726.96060727 593.86547852 1730.37606812 C590.66311237 1733.16378421 587.58937866 1736.088436 584.5 1739 C579.41421139 1743.76597866 574.31290334 1748.48656211 569 1753 C567.62908203 1754.17175781 567.62908203 1754.17175781 566.23046875 1755.3671875 C562.83439521 1758.26162932 559.4205613 1761.1345571 556 1764 C555.34821777 1764.5460791 554.69643555 1765.0921582 554.02490234 1765.65478516 C544.24622121 1773.82665171 534.2877371 1781.70912478 524.12060547 1789.39111328 C522.00084425 1790.99935947 519.89149195 1792.62031319 517.78515625 1794.24609375 C449.76524585 1846.7280608 373.51415823 1890.50417663 0 1994 C-0.94224426 1994.0835675 -1.88448853 1994.16713501 -2.85528564 1994.25323486 C-54.23037534 1998.72519361 -107.38695774 1999.50019162 -158.81878662 1995.18035889 C-161.16452349 1994.98639598 -163.51103527 1994.80513928 -165.85791016 1994.62548828 C-253.05812304 1987.87940423 -339.74234566 1969.84588668 -479 1918 C-480.6392041 1917.29593018 -480.6392041 1917.29593018 -482.31152344 1916.57763672 C-518.89338 1900.80475056 -554.9596826 1883.12085901 -589.16650391 1862.68652344 C-591.9705937 1861.0175029 -594.78573046 1859.36898484 -597.60546875 1857.7265625 C-617.2559054 1846.25976734 -636.34198949 1834.01693186 -655 1821 C-655.71462402 1820.50290527 -656.42924805 1820.00581055 -657.16552734 1819.49365234 C-678.50187755 1804.63117291 -699.06429246 1788.91855231 -719.19580078 1772.47216797 C-720.78273046 1771.17728489 -722.37348737 1769.88709522 -723.96484375 1768.59765625 C-734.62483343 1759.94130634 -745.02733013 1751.01638626 -755.0859375 1741.66796875 C-757.27385116 1739.66482528 -759.47966215 1737.70462073 -761.71948242 1735.76123047 C-774.08259413 1724.95631153 -785.75990978 1713.40392197 -797.34887695 1701.78149414 C-799.58885186 1699.5360842 -801.83422696 1697.29617161 -804.08007812 1695.05664062 C-805.53417542 1693.60188354 -806.98796303 1692.14681682 -808.44140625 1690.69140625 C-809.42748619 1689.70836266 -809.42748619 1689.70836266 -810.43348694 1688.70545959 C-814.24923732 1684.87057284 -817.88607358 1680.9290683 -821.41404724 1676.82749939 C-824.03081401 1673.8121891 -826.76956598 1670.91205112 -829.5 1668 C-834.09150696 1663.07495537 -838.63232877 1658.12601415 -843 1653 C-844.17369141 1651.62714844 -844.17369141 1651.62714844 -845.37109375 1650.2265625 C-848.26402015 1646.83161565 -851.13573885 1643.41915061 -854 1640 C-854.81911865 1639.02232666 -854.81911865 1639.02232666 -855.65478516 1638.02490234 C-863.82665171 1628.24622121 -871.70912478 1618.2877371 -879.39111328 1608.12060547 C-880.99935947 1606.00084425 -882.62031319 1603.89149195 -884.24609375 1601.78515625 C-921.64702314 1553.3112135 -953.54425565 1500.85854731 -981.29833984 1446.3359375 C-982.80903482 1443.37436847 -984.33365464 1440.42056581 -985.86328125 1437.46875 C-1026.6617301 1358.11434674 -1054.63728605 1270.05249645 -1084 1084 C-1084.0835675 1083.09638733 -1084.16713501 1082.19277466 -1084.25323486 1081.26177979 C-1089.43444547 1024.74936538 -1089.22494538 966.49716181 -1084 910 C-1083.91514343 909.06416077 -1083.83028687 908.12832153 -1083.74285889 907.16412354 C-1075.36140899 815.20169547 -1055.00836039 724.19266263 -984.61230469 554.27148438 C-983.10944326 551.22206839 -981.61978312 548.16656163 -980.1328125 545.109375 C-974.04822352 532.68039578 -967.38986061 520.64055113 -960.50195312 508.64111328 C-958.74595589 505.55327549 -957.04450235 502.4383809 -955.34887695 499.31713867 C-938.81848515 469.00504959 -919.31149342 439.90568098 -899 412 C-898.46536133 411.26249512 -897.93072266 410.52499023 -897.37988281 409.76513672 C-881.57362538 387.99892165 -864.8163681 367.06049004 -847.36083984 346.59912109 C-845.95021698 344.94150004 -844.54712211 343.27770172 -843.14453125 341.61328125 C-836.34463016 333.57415642 -829.27242121 325.83437817 -822.04003906 318.18359375 C-820.51985897 316.55644072 -819.01357233 314.91628614 -817.51464844 313.26953125 C-809.45177952 304.41251091 -801.06065368 295.90702005 -792.58056641 287.45019531 C-790.23613323 285.11116519 -787.89715129 282.76677803 -785.55859375 280.421875 C-784.04459166 278.90853313 -782.5302797 277.39550119 -781.015625 275.8828125 C-780.32897766 275.19414093 -779.64233032 274.50546936 -778.93487549 273.79592896 C-775.01957356 269.89928722 -771.00555401 266.17539602 -766.81610107 262.57455444 C-763.80361092 259.96273408 -760.90811106 257.22676534 -758 254.5 C-753.07464298 249.90780598 -748.11273466 245.38366239 -743 241 C-741.96587775 240.10056855 -740.93205147 239.20079676 -739.8984375 238.30078125 C-733.43161459 232.69053356 -726.87037199 227.25117144 -720.10644531 222.00268555 C-716.37462266 219.10160541 -712.73219828 216.11886935 -709.125 213.0625 C-702.66876592 207.64676863 -695.95287607 202.6147613 -689.17578125 197.609375 C-686.96647821 195.97520471 -684.76412553 194.33199516 -682.5625 192.6875 C-643.11190601 163.30787586 -601.45777954 137.03340516 -558 114 C-557.0394873 113.49082031 -556.07897461 112.98164062 -555.08935547 112.45703125 C-548.41468953 108.9286534 -541.71308489 105.45460647 -535 102 C-534.07880371 101.52240234 -533.15760742 101.04480469 -532.20849609 100.55273438 C-451.98643971 59.05905132 -363.53422346 30.30960713 -174 0 C-173.07707153 -0.0835675 -172.15414307 -0.16713501 -171.20324707 -0.25323486 C-114.64179247 -5.30438897 -56.54580061 -5.11999753 0 0 Z " fill="#CD5237" transform="translate(1087,3)"/>
<path d="M0 0 C3.87181118 0.01841615 7.74338361 0.02050774 11.61523438 0.02026367 C14.12044475 0.02517557 16.62565353 0.03100246 19.13085938 0.0378418 C20.26656372 0.03895462 21.40226807 0.04006744 22.5723877 0.04121399 C33.68933995 0.10613701 44.58809139 0.76008782 55.47460938 3.08081055 C56.34077881 3.261521 57.20694824 3.44223145 58.09936523 3.62841797 C76.8386093 7.59604478 94.53996728 13.99839009 111.34960938 23.20581055 C111.98882324 23.55369629 112.62803711 23.90158203 113.28662109 24.26000977 C122.91165579 29.56945203 131.28638683 35.74714077 139.34960938 43.20581055 C140.13295654 43.92341553 140.13295654 43.92341553 140.93212891 44.65551758 C165.31248303 67.22488903 176.9536871 98.15817626 178.47509766 130.90698242 C178.96026693 144.9598252 177.80629648 158.38165102 175.34960938 172.20581055 C175.21039062 173.04208984 175.07117187 173.87836914 174.92773438 174.73999023 C172.7474325 187.76628451 169.17127266 199.91765985 164.34960938 212.20581055 C164.01832031 213.05256348 163.68703125 213.89931641 163.34570312 214.77172852 C150.80551861 246.34271587 132.15849525 274.31231729 110.34960938 300.20581055 C109.89618164 300.74947266 109.44275391 301.29313477 108.97558594 301.85327148 C102.88143424 309.15241243 96.61088412 316.0947067 89.81445312 322.74487305 C87.04640321 325.50853619 84.49944128 328.40636288 81.95507812 331.3737793 C78.13811393 335.7293905 73.99305067 339.68872544 69.59960938 343.45581055 C66.191202 346.38862619 63.00590059 349.50680098 59.84960938 352.70581055 C56.1897056 356.4099296 52.46017138 359.95868826 48.49804688 363.33862305 C46.31745531 365.23375535 44.19561213 367.18548383 42.07836914 369.15087891 C36.9497417 373.90905583 31.70915999 378.44309741 26.25585938 382.83081055 C23.5480656 385.04363127 20.89773444 387.30729624 18.25634766 389.59814453 C12.27680142 394.78374992 6.19356968 399.74186262 -0.11914062 404.51831055 C-2.72493972 406.49058968 -5.30198737 408.49598478 -7.86914062 410.51831055 C-17.24464715 417.89770193 -26.77446989 424.95465101 -36.57666016 431.75561523 C-38.60248795 433.17231138 -40.61110009 434.61019071 -42.61523438 436.05737305 C-66.86682711 453.52290174 -92.63326924 468.86659913 -118.58789062 483.64331055 C-119.57160645 484.2055835 -120.55532227 484.76785645 -121.56884766 485.34716797 C-122.47103027 485.85610596 -123.37321289 486.36504395 -124.30273438 486.8894043 C-125.09671631 487.33856201 -125.89069824 487.78771973 -126.70874023 488.25048828 C-128.65039062 489.20581055 -128.65039062 489.20581055 -130.65039062 489.20581055 C-129.99039062 491.18581055 -129.33039063 493.16581055 -128.65039062 495.20581055 C-127.79102905 495.02574463 -127.79102905 495.02574463 -126.91430664 494.84204102 C-106.14253184 490.54666185 -85.23336289 487.35314506 -64.21374512 484.55010986 C-61.78951838 484.22449762 -59.36688856 483.88883128 -56.94433594 483.55102539 C-13.10842373 477.53182986 34.67405821 476.69761846 78.34960938 484.20581055 C79.44192871 484.38241211 80.53424805 484.55901367 81.65966797 484.7409668 C149.45629036 495.90771259 223.77827866 527.29662186 265.35668945 584.37646484 C279.88272576 604.96034139 290.54370769 627.59684029 296.77929688 651.9987793 C297.31045507 654.05428873 297.87324602 656.09833874 298.44335938 658.14331055 C309.55285132 699.45446886 306.54274684 747.42869892 296.9375 788.63549805 C296.41637739 790.91389459 295.94143153 793.19401994 295.49023438 795.48706055 C283.77154743 853.08869763 248.27259224 904.58782073 207.28344727 945.40234375 C205.78154013 946.8988598 204.28509875 948.40069354 202.7890625 949.90307617 C197.48191493 955.21427024 192.08061051 960.34973545 186.34960938 965.20581055 C185.25505533 966.15540538 184.16127626 967.10589441 183.06835938 968.05737305 C151.89596006 994.97964551 118.29671056 1019.03614592 82.34960938 1039.20581055 C81.07609619 1039.92607422 81.07609619 1039.92607422 79.77685547 1040.66088867 C17.40314512 1075.808258 -50.64704541 1100.94734714 -119.96289062 1118.58081055 C-120.68239899 1118.76457245 -121.40190735 1118.94833435 -122.14321899 1119.13766479 C-186.32706322 1135.45720414 -253.19695291 1147.48512806 -319.65039062 1146.20581055 C-324.42682988 1129.21452467 -324.42682988 1129.21452467 -326.46289062 1121.39331055 C-326.69621094 1120.49999023 -326.92953125 1119.60666992 -327.16992188 1118.6862793 C-327.66535074 1116.12857745 -327.68366161 1113.80392277 -327.65039062 1111.20581055 C-326.99071289 1111.07118408 -326.33103516 1110.93655762 -325.65136719 1110.79785156 C-297.89294142 1105.09026812 -270.23408004 1098.67198367 -243.22973633 1090.02490234 C-240.37073772 1089.11700454 -237.50351803 1088.23864243 -234.63476562 1087.36206055 C-211.73998908 1080.32924366 -188.92477821 1073.02876122 -166.65039062 1064.20581055 C-165.3033015 1063.67631303 -163.95612852 1063.14702884 -162.60888672 1062.61791992 C-121.99234954 1046.63359754 -82.10832136 1028.67038307 -44.32226562 1006.74682617 C-41.67172139 1005.21811316 -39.0078662 1003.71591303 -36.33789062 1002.22143555 C-23.47512981 995.00222296 -11.01754583 987.24105667 1.34960938 979.20581055 C2.47704594 978.48159124 3.60462224 977.75758934 4.73242188 977.03393555 C21.07026072 966.38475925 36.63000367 954.44441403 51.03320312 941.3034668 C53.02485754 939.49989442 55.04982795 937.75474959 57.09960938 936.01831055 C66.2078104 928.0555628 74.75410747 919.37262741 82.23632812 909.8659668 C83.63235477 908.10867633 85.07262065 906.38554466 86.55664062 904.7019043 C106.43725517 882.05185091 120.47437505 855.1014116 131.34960938 827.20581055 C131.65237793 826.4473584 131.95514648 825.68890625 132.26708984 824.9074707 C137.48739997 811.75056651 140.41421228 798.02214401 143.34960938 784.20581055 C143.62587158 782.93640625 143.62587158 782.93640625 143.90771484 781.64135742 C152.67223182 740.03287837 151.27483921 694.77214199 132.34960938 656.20581055 C132.0536084 655.5907666 131.75760742 654.97572266 131.45263672 654.34204102 C118.78660762 628.29148846 98.35278366 604.70321254 75.34960938 587.20581055 C74.70926758 586.71612793 74.06892578 586.22644531 73.40917969 585.72192383 C63.22563432 577.98666269 52.81089843 571.22324909 41.46972656 565.31274414 C39.49447471 564.28144613 37.53493836 563.2250044 35.57617188 562.1628418 C11.23622179 549.22362946 -15.59280723 540.98834947 -42.65039062 536.20581055 C-43.41644119 536.06731186 -44.18249176 535.92881317 -44.97175598 535.78611755 C-60.67516928 533.01363953 -76.17155455 532.69127586 -92.08789062 532.76831055 C-93.38075989 532.77068726 -94.67362915 532.77306396 -96.00567627 532.7755127 C-117.10671728 532.83601048 -137.75023325 534.00681285 -158.63769531 536.93048096 C-161.94001318 537.38222634 -165.24835181 537.78060038 -168.55664062 538.1862793 C-183.76367672 540.10098561 -198.71393426 542.77681862 -213.65039062 546.20581055 C-214.33681641 546.35985352 -215.02324219 546.51389648 -215.73046875 546.67260742 C-238.0283367 551.71811039 -260.12217286 558.65262831 -281.5769043 566.50073242 C-283.5849541 567.1835592 -285.58601137 567.72316025 -287.65039062 568.20581055 C-298.65039062 534.36643449 -298.65039062 534.36643449 -298.65039062 528.20581055 C-297.92376221 527.88531738 -297.19713379 527.56482422 -296.44848633 527.23461914 C-215.53282825 491.46191363 -138.79245696 446.3281978 -73.16210938 386.47143555 C-71.75257341 385.20000341 -70.33630474 383.93563807 -68.8972168 382.69775391 C-63.56405356 378.10620584 -58.55038283 373.25605716 -53.58789062 368.26831055 C-52.82412109 367.5084082 -52.06035156 366.74850586 -51.2734375 365.96557617 C-14.55198524 329.1812985 12.27023134 282.20109728 21.09960938 230.76831055 C21.21530273 230.09598389 21.33099609 229.42365723 21.45019531 228.73095703 C27.23292527 192.35160953 24.47651277 152.11990871 2.38085938 121.4753418 C0.4363608 118.98684659 -1.58072536 116.59085337 -3.65039062 114.20581055 C-4.33746094 113.37436523 -5.02453125 112.54291992 -5.73242188 111.6862793 C-24.80870012 89.31032049 -54.13215938 78.67212486 -82.65039062 75.20581055 C-85.9013987 75.0377891 -89.1493585 74.99487765 -92.40429688 74.9675293 C-93.80940773 74.95542168 -93.80940773 74.95542168 -95.24290466 74.94306946 C-97.22726627 74.9292801 -99.21165109 74.91853509 -101.19604492 74.91064453 C-103.18049313 74.89924243 -105.16491365 74.8789831 -107.14916992 74.84912109 C-154.60312774 74.13729184 -196.47456483 92.45181968 -230.47851562 125.03393555 C-234.958891 129.44025513 -238.84243128 134.21343576 -242.65039062 139.20581055 C-243.678069 140.5190682 -244.70679017 141.83151022 -245.73632812 143.14331055 C-287.04410023 196.08561858 -309.15926192 256.96062954 -322.65039062 322.20581055 C-322.84584473 323.12604004 -323.04129883 324.04626953 -323.24267578 324.99438477 C-325.70790171 336.62276538 -327.53258858 348.36563707 -329.31759644 360.11453247 C-329.57092662 361.77519173 -329.82786149 363.43530751 -330.08938599 365.09469604 C-335.69788801 400.9076915 -336.1057894 436.74256742 -336.08416924 472.91060691 C-336.08056887 480.00652506 -336.09475385 487.10238483 -336.10921219 494.19828526 C-336.13540509 507.28466838 -336.14813499 520.37103037 -336.15277672 533.45743752 C-336.15740792 546.38588647 -336.16827796 559.3143063 -336.18720436 572.24274254 C-336.18838449 573.05121204 -336.18956462 573.85968154 -336.19078051 574.69265011 C-336.1968072 578.79964505 -336.20294269 582.90663981 -336.20912001 587.01363453 C-336.25250513 615.9877604 -336.28231828 644.96188555 -336.30395508 673.93603516 C-336.3249864 702.05713953 -336.35228657 730.1782266 -336.38793945 758.29931641 C-336.38903893 759.16847265 -336.39013841 760.03762889 -336.3912712 760.93312319 C-336.40232099 769.66276637 -336.41349679 778.39240937 -336.42476482 787.12205227 C-336.4477095 804.90010812 -336.46981403 822.67816499 -336.4914093 840.45622253 C-336.49240292 841.27335383 -336.49339654 842.09048512 -336.49442027 842.93237796 C-336.5605034 897.35684144 -336.60695 951.78132487 -336.65039062 1006.20581055 C-340.48820404 1007.64655453 -344.32622237 1009.08675187 -348.16427612 1010.52685547 C-349.2437939 1010.93212212 -350.32331167 1011.33738876 -351.43554211 1011.75493622 C-359.32883795 1014.7162065 -367.23460379 1017.63901436 -375.15820312 1020.51831055 C-376.41217033 1020.97508922 -377.66609019 1021.43199787 -378.91996765 1021.88902283 C-381.53519968 1022.84208458 -384.15063189 1023.79459344 -386.76626587 1024.74655151 C-393.65174516 1027.25256293 -400.53619301 1029.76140134 -407.41992188 1032.2722168 C-408.10725843 1032.5228998 -408.79459499 1032.7735828 -409.50275993 1033.03186226 C-418.98204663 1036.49014333 -428.45193872 1039.97283908 -437.91210938 1043.4831543 C-439.53886597 1044.08651108 -439.53886597 1044.08651108 -441.19848633 1044.70205688 C-446.23977179 1046.57282376 -451.27939234 1048.4479278 -456.31689453 1050.32885742 C-458.08037503 1050.98453335 -459.84388239 1051.64013704 -461.60742188 1052.2956543 C-462.80113655 1052.74387794 -462.80113655 1052.74387794 -464.01896667 1053.20115662 C-469.42387661 1055.20581055 -469.42387661 1055.20581055 -471.65039062 1055.20581055 C-471.70183679 1002.68184576 -471.74958647 950.15787901 -471.77742004 897.63389587 C-471.77783422 896.8543324 -471.77824839 896.07476893 -471.77867511 895.27158232 C-471.78765752 878.3223767 -471.79596754 861.3731708 -471.80358661 844.4239645 C-471.80732805 836.10995414 -471.81121779 827.79594385 -471.81518555 819.48193359 C-471.81557782 818.65466734 -471.8159701 817.82740108 -471.81637427 816.97506614 C-471.82911805 790.24612898 -471.85162156 763.51721107 -471.87928229 736.78828554 C-471.90769698 709.28029737 -471.92607388 681.77231982 -471.9321356 654.26431722 C-471.93299984 650.36326323 -471.93397674 646.46220927 -471.93502235 642.56115532 C-471.93522462 641.79350484 -471.93542689 641.02585437 -471.93563529 640.23494176 C-471.93915615 627.96550679 -471.95300379 615.69610502 -471.97088673 603.4266835 C-471.98871575 591.03871344 -471.99525337 578.6507757 -471.99089476 566.26279331 C-471.98883857 559.57226902 -471.99169543 552.88185213 -472.00800705 546.19133949 C-472.09448039 508.86291081 -471.26631984 471.77233365 -465.90039062 434.76831055 C-465.71296799 433.43147217 -465.71296799 433.43147217 -465.52175903 432.06762695 C-462.0702595 407.5078121 -457.19121155 383.13659848 -450.65039062 359.20581055 C-450.47362793 358.5514502 -450.29686523 357.89708984 -450.11474609 357.22290039 C-429.54458254 281.92512598 -392.51218062 208.24462382 -339.06445312 150.83081055 C-337.15812015 148.75790479 -335.31648998 146.65772421 -333.48242188 144.5222168 C-329.11156865 139.51066562 -324.42383258 134.83304796 -319.71289062 130.14331055 C-318.42995117 128.85457031 -318.42995117 128.85457031 -317.12109375 127.53979492 C-312.12595666 122.55227818 -307.01767022 117.78822844 -301.65039062 113.20581055 C-300.55546999 112.24490322 -299.46167003 111.28271702 -298.36914062 110.3190918 C-290.44474588 103.39684248 -282.2484411 96.95747882 -273.75537109 90.7487793 C-271.61943703 89.1831213 -269.49600691 87.60150234 -267.37304688 86.01831055 C-256.19468703 77.74215687 -244.60726842 70.304007 -232.65039062 63.20581055 C-231.75223633 62.66956055 -230.85408203 62.13331055 -229.92871094 61.58081055 C-205.68431052 47.19839261 -180.0521968 35.99754837 -153.65039062 26.20581055 C-152.82990234 25.90094727 -152.00941406 25.59608398 -151.1640625 25.28198242 C-122.89384629 14.94529544 -93.08957091 8.95744659 -63.40039062 4.51831055 C-62.71843628 4.41539703 -62.03648193 4.31248352 -61.3338623 4.20645142 C-56.44698864 3.4756053 -51.55377496 2.8158494 -46.65039062 2.20581055 C-45.89032715 2.10978546 -45.13026367 2.01376038 -44.34716797 1.91482544 C-29.56844599 0.10935824 -14.87552978 -0.07316146 0 0 Z " fill="#FEFEFE" transform="translate(1083.650390625,426.794189453125)"/>
</svg>
